<svg xmlns="http://www.w3.org/2000/svg" viewBox="0 0 192 192" width="192" height="192">
  <rect width="192" height="192" rx="36" fill="#1a0a2e"/>
  <circle cx="96" cy="96" r="70" fill="url(#glow2)" opacity="0.3"/>
  <rect x="56" y="58" width="34" height="46" rx="4" fill="#7c3aed"/>
  <rect x="102" y="58" width="34" height="46" rx="4" fill="#9d5cf6"/>
  <rect x="91" y="55" width="10" height="52" rx="3" fill="#4c1d95"/>
  <path d="M61 58 Q79 53 90 57" stroke="#c4b5fd" stroke-width="2" fill="none" stroke-linecap="round"/>
  <path d="M102 57 Q116 53 131 58" stroke="#ddd6fe" stroke-width="2" fill="none" stroke-linecap="round"/>
  <rect x="61" y="70" width="22" height="3" rx="1.5" fill="#c4b5fd" opacity="0.7"/>
  <rect x="61" y="78" width="18" height="3" rx="1.5" fill="#c4b5fd" opacity="0.5"/>
  <rect x="61" y="86" width="20" height="3" rx="1.5" fill="#c4b5fd" opacity="0.5"/>
  <rect x="107" y="70" width="22" height="3" rx="1.5" fill="#ddd6fe" opacity="0.7"/>
  <rect x="107" y="78" width="18" height="3" rx="1.5" fill="#ddd6fe" opacity="0.5"/>
  <rect x="107" y="86" width="20" height="3" rx="1.5" fill="#ddd6fe" opacity="0.5"/>
  <rect x="80" y="116" width="32" height="5" rx="2.5" fill="#7c3aed"/>
  <polygon points="96,104 112,114 96,120 80,114" fill="#9d5cf6"/>
  <line x1="112" y1="114" x2="112" y2="126" stroke="#7c3aed" stroke-width="3" stroke-linecap="round"/>
  <circle cx="112" cy="128" r="3" fill="#c4b5fd"/>
  <defs>
    <radialGradient id="glow2" cx="50%" cy="50%" r="50%">
      <stop offset="0%" stop-color="#7c3aed" stop-opacity="1"/>
      <stop offset="100%" stop-color="#1a0a2e" stop-opacity="0"/>
    </radialGradient>
  </defs>
</svg>
